<?xml version="1.0" encoding="utf-8"?>
<svg x="0pt" y="0pt" width="1000pt" height="1000pt" viewBox="0 0 1000 1000" xmlns="http://www.w3.org/2000/svg" xmlns:xlink="http://www.w3.org/1999/xlink">
  <g id="1">
    <title>Layer 1</title>
    <defs>
      <title>Path</title>
      <g id="2">
        <defs>
          <path id="3" d="M500,13.881 C768.476,13.881,986.119,231.524,986.119,500 C986.119,768.476,768.476,986.119,500,986.119 C231.524,986.119,13.881,768.476,13.881,500 C13.881,231.524,231.524,13.881,500,13.881 z"/>
        </defs>
        <use xlink:href="#3" style="fill:#fe5648;fill-opacity:1;fill-rule:evenodd;opacity:1;stroke:none;"/>
      </g>
    </defs>
    <use xlink:href="#2"/>
    <defs>
      <title>Path</title>
      <g id="4">
        <defs>
          <path id="5" d="M500,119.852 C709.95,119.852,880.148,290.05,880.148,500 C880.148,709.95,709.95,880.148,500,880.148 C290.05,880.148,119.852,709.95,119.852,500 C119.852,290.05,290.05,119.852,500,119.852 z"/>
        </defs>
        <use xlink:href="#5" style="fill:#372e3d;fill-opacity:1;fill-rule:evenodd;opacity:1;stroke:none;"/>
      </g>
    </defs>
    <use xlink:href="#4"/>
    <defs>
      <title>Path</title>
      <g id="6">
        <defs>
          <path id="7" d="M429.615,256.829 C600.692,256.829,739.378,396.364,739.378,568.488 C739.378,740.613,600.692,880.148,429.615,880.148 C258.538,880.148,119.852,740.613,119.852,568.488 C119.852,396.364,258.538,256.829,429.615,256.829 z"/>
        </defs>
        <use xlink:href="#7" style="fill:#fe5648;fill-opacity:1;fill-rule:evenodd;opacity:1;stroke:none;"/>
      </g>
    </defs>
    <use xlink:href="#6"/>
    <defs>
      <title>Path</title>
      <g id="8">
        <defs>
          <path id="9" d="M574.432,235.107 C659.97,235.107,729.313,304.874,729.313,390.937 C729.313,476.999,659.97,546.766,574.432,546.766 C488.893,546.766,419.55,476.999,419.55,390.937 C419.55,304.874,488.893,235.107,574.432,235.107 z"/>
        </defs>
        <use xlink:href="#9" style="fill:#372e3d;fill-opacity:1;fill-rule:evenodd;opacity:1;stroke:none;"/>
      </g>
    </defs>
    <use xlink:href="#8"/>
    <defs>
      <title>Path</title>
      <g id="10">
        <defs>
          <path id="11" d="M602.757,514.914 C638.751,514.914,667.929,544.271,667.929,580.485 C667.929,616.698,638.751,646.055,602.757,646.055 C566.764,646.055,537.585,616.698,537.585,580.485 C537.585,544.271,566.764,514.914,602.757,514.914 z"/>
        </defs>
        <use xlink:href="#11" style="fill:#372e3d;fill-opacity:1;fill-rule:evenodd;opacity:1;stroke:none;"/>
      </g>
    </defs>
    <use xlink:href="#10"/>
    <defs>
      <title>Text</title>
      <g id="12">
        <defs>
          <path id="13" d="M202.296,592.605 C218.43,592.605,231.063,597.705,240.196,607.905 C249.33,618.105,253.896,631.805,253.896,649.005 C253.896,666.872,249.363,680.805,240.296,690.805 C231.23,700.805,218.563,705.805,202.296,705.805 C186.03,705.805,173.363,700.838,164.296,690.905 C155.23,680.972,150.696,667.072,150.696,649.205 C150.696,637.872,152.73,627.972,156.796,619.505 C160.863,611.038,166.796,604.438,174.596,599.705 C182.396,594.972,191.63,592.605,202.296,592.605 z M202.296,616.005 C195.763,616.005,190.963,618.638,187.896,623.905 C184.83,629.172,183.296,637.605,183.296,649.205 C183.296,660.938,184.83,669.438,187.896,674.705 C190.963,679.972,195.763,682.605,202.296,682.605 C208.83,682.605,213.63,679.938,216.696,674.605 C219.763,669.272,221.296,660.738,221.296,649.005 C221.296,637.538,219.763,629.172,216.696,623.905 C213.63,618.638,208.83,616.005,202.296,616.005 z M335.096,592.605 C348.43,592.605,358.23,597.505,364.496,607.305 C370.763,617.105,373.896,631.005,373.896,649.005 C373.896,659.938,372.263,669.705,368.996,678.305 C365.73,686.905,361.03,693.638,354.896,698.505 C348.763,703.372,341.496,705.805,333.096,705.805 C322.83,705.805,314.43,702.138,307.896,694.805 C307.896,694.805,307.896,743.405,307.896,743.405 C307.896,743.405,276.296,746.805,276.296,746.805 C276.296,746.805,276.296,596.205,276.296,596.205 C276.296,596.205,304.296,596.205,304.296,596.205 C304.296,596.205,305.696,608.005,305.696,608.005 C309.83,602.805,314.463,598.938,319.596,596.405 C324.73,593.872,329.896,592.605,335.096,592.605 z M325.296,616.005 C318.63,616.005,312.83,620.138,307.896,628.405 C307.896,628.405,307.896,673.205,307.896,673.205 C310.163,676.405,312.53,678.772,314.996,680.305 C317.463,681.838,320.296,682.605,323.496,682.605 C329.363,682.605,333.796,679.972,336.796,674.705 C339.796,669.438,341.296,661.005,341.296,649.405 C341.296,636.872,339.963,628.172,337.296,623.305 C334.63,618.438,330.63,616.005,325.296,616.005 z M438.896,683.205 C444.363,683.205,448.663,682.372,451.797,680.705 C454.93,679.038,456.496,676.538,456.496,673.205 C456.496,670.805,455.863,668.872,454.596,667.405 C453.33,665.938,450.963,664.505,447.496,663.105 C444.03,661.705,438.63,660.005,431.296,658.005 C420.63,655.205,412.496,651.305,406.896,646.305 C401.296,641.305,398.496,634.405,398.496,625.605 C398.496,615.872,402.53,607.938,410.596,601.805 C418.663,595.672,429.963,592.605,444.497,592.605 C461.296,592.605,475.63,596.938,487.496,605.605 C487.496,605.605,474.896,624.205,474.896,624.205 C465.163,618.205,455.363,615.205,445.496,615.205 C440.296,615.205,436.463,615.872,433.997,617.205 C431.53,618.538,430.296,620.605,430.296,623.405 C430.296,625.272,430.93,626.838,432.196,628.105 C433.463,629.372,435.863,630.672,439.397,632.005 C442.93,633.338,448.23,635.005,455.297,637.005 C462.896,639.138,469.13,641.472,473.997,644.005 C478.863,646.538,482.63,649.938,485.296,654.205 C487.963,658.472,489.296,663.938,489.296,670.605 C489.296,678.072,487.03,684.472,482.496,689.805 C477.963,695.138,471.896,699.138,464.296,701.805 C456.696,704.472,448.297,705.805,439.096,705.805 C429.23,705.805,420.296,704.405,412.296,701.605 C404.296,698.805,397.496,694.872,391.896,689.805 C391.896,689.805,407.696,672.005,407.696,672.005 C417.297,679.472,427.697,683.205,438.896,683.205 z M540.096,683.405 C540.096,677.405,542.263,672.205,546.596,667.805 C550.93,663.405,556.163,661.205,562.297,661.205 C568.43,661.205,573.663,663.405,577.996,667.805 C582.33,672.205,584.496,677.405,584.496,683.405 C584.496,689.538,582.33,694.805,577.996,699.205 C573.663,703.605,568.43,705.805,562.297,705.805 C556.163,705.805,550.93,703.605,546.596,699.205 C542.263,694.805,540.096,689.538,540.096,683.405 z"/>
        </defs>
        <use xlink:href="#13" style="fill:#372e3d;fill-opacity:1;fill-rule:nonzero;opacity:1;stroke:none;"/>
      </g>
    </defs>
    <use xlink:href="#12"/>
  </g>
</svg>
