<?xml version="1.0" encoding="utf-8"?>
<svg x="0pt" y="0pt" width="3164.22pt" height="1000pt" viewBox="0 0 3164.22 1000" xmlns="http://www.w3.org/2000/svg" xmlns:xlink="http://www.w3.org/1999/xlink">
  <g id="1">
    <title>Layer 1</title>
    <defs>
      <title>Shape 34</title>
      <g id="2">
        <defs>
          <path id="3" d="M202.296,616.005 C195.763,616.005,190.963,618.638,187.896,623.905 C184.83,629.172,183.296,637.605,183.296,649.205 C183.296,660.938,184.83,669.438,187.896,674.705 C190.963,679.972,195.763,682.605,202.296,682.605 C208.83,682.605,213.63,679.938,216.696,674.605 C219.763,669.272,221.296,660.738,221.296,649.005 C221.296,637.538,219.763,629.172,216.696,623.905 C213.63,618.638,208.83,616.005,202.296,616.005 z"/>
        </defs>
        <use xlink:href="#3" style="fill:#000000;fill-opacity:1;fill-rule:evenodd;opacity:1;stroke:none;"/>
      </g>
    </defs>
    <use xlink:href="#2"/>
    <defs>
      <title>Shape 32</title>
      <g id="4">
        <defs>
          <path id="5" d="M307.896,628.405 C307.896,628.405,307.896,673.205,307.896,673.205 C310.163,676.405,312.53,678.772,314.996,680.305 C317.463,681.838,320.296,682.605,323.496,682.605 C329.363,682.605,333.796,679.972,336.796,674.705 C339.796,669.438,341.296,661.005,341.296,649.405 C341.296,636.872,339.963,628.172,337.296,623.305 C334.63,618.438,330.63,616.005,325.296,616.005 C318.63,616.005,312.83,620.138,307.896,628.405 z"/>
        </defs>
        <use xlink:href="#5" style="fill:#000000;fill-opacity:1;fill-rule:evenodd;opacity:1;stroke:none;"/>
      </g>
    </defs>
    <use xlink:href="#4"/>
    <defs>
      <title>Shape 31</title>
      <g id="6">
        <defs>
          <path id="7" d="M986.119,500 C986.119,231.524,768.476,13.881,500,13.881 C231.524,13.881,13.881,231.524,13.881,500 C13.881,768.476,231.524,986.119,500,986.119 C768.476,986.119,986.119,768.476,986.119,500 z M546.596,667.805 C550.93,663.405,556.163,661.205,562.297,661.205 C568.43,661.205,573.663,663.405,577.996,667.805 C582.33,672.205,584.496,677.405,584.496,683.405 C584.496,689.538,582.33,694.805,577.996,699.205 C573.663,703.605,568.43,705.805,562.297,705.805 C556.163,705.805,550.93,703.605,546.596,699.205 C542.263,694.805,540.096,689.538,540.096,683.405 C540.096,677.405,542.263,672.205,546.596,667.805 z M364.496,607.305 C358.23,597.505,348.43,592.605,335.096,592.605 C329.896,592.605,324.73,593.872,319.596,596.405 C314.463,598.938,309.83,602.805,305.696,608.005 C305.696,608.005,304.296,596.205,304.296,596.205 C304.296,596.205,276.296,596.205,276.296,596.205 C276.296,596.205,276.296,746.805,276.296,746.805 C276.296,746.805,307.896,743.405,307.896,743.405 C307.896,743.405,307.896,694.805,307.896,694.805 C314.43,702.138,322.83,705.805,333.096,705.805 C341.496,705.805,348.763,703.372,354.896,698.505 C361.03,693.638,365.73,686.905,368.996,678.305 C372.263,669.705,373.896,659.938,373.896,649.005 C373.896,631.005,370.763,617.105,364.496,607.305 z M451.796,680.705 C454.93,679.038,456.496,676.538,456.496,673.205 C456.496,670.805,455.863,668.872,454.596,667.405 C453.33,665.938,450.963,664.505,447.496,663.105 C444.03,661.705,438.63,660.005,431.296,658.005 C420.63,655.205,412.496,651.305,406.896,646.305 C401.296,641.305,398.496,634.405,398.496,625.605 C398.496,615.872,402.53,607.938,410.596,601.805 C418.663,595.672,429.963,592.605,444.496,592.605 C461.296,592.605,475.63,596.938,487.496,605.605 C487.496,605.605,474.896,624.205,474.896,624.205 C465.163,618.205,455.363,615.205,445.496,615.205 C440.296,615.205,436.463,615.872,433.996,617.205 C431.53,618.538,430.296,620.605,430.296,623.405 C430.296,625.272,430.93,626.838,432.196,628.105 C433.463,629.372,435.863,630.672,439.396,632.005 C442.93,633.338,448.23,635.005,455.296,637.005 C462.896,639.138,469.13,641.472,473.996,644.005 C478.863,646.538,482.63,649.938,485.296,654.205 C487.963,658.472,489.296,663.938,489.296,670.605 C489.296,678.072,487.03,684.472,482.496,689.805 C477.963,695.138,471.896,699.138,464.296,701.805 C456.696,704.472,448.296,705.805,439.096,705.805 C429.23,705.805,420.296,704.405,412.296,701.605 C404.296,698.805,397.496,694.872,391.896,689.805 C391.896,689.805,407.696,672.005,407.696,672.005 C417.296,679.472,427.696,683.205,438.896,683.205 C444.363,683.205,448.663,682.372,451.796,680.705 z M462.944,878.365 C475.137,879.544,487.498,880.148,500,880.148 C709.95,880.148,880.148,709.95,880.148,500 C880.148,290.05,709.95,119.852,500,119.852 C290.05,119.852,119.852,290.05,119.852,500 C119.852,512.108,120.418,524.083,121.525,535.901 C121.525,535.901,121.525,535.901,121.525,535.901 C137.719,379.092,269.476,256.829,429.615,256.829 C449.273,256.829,468.503,258.671,487.144,262.194 C487.144,262.194,487.144,262.194,487.144,262.194 C446.334,290.257,419.55,337.45,419.55,390.937 C419.55,468.016,475.173,532.025,548.237,544.547 C541.503,554.868,537.585,567.216,537.585,580.485 C537.585,616.698,566.764,646.055,602.757,646.055 C638.751,646.055,667.929,616.698,667.929,580.485 C667.929,560.186,658.762,542.042,644.365,530.014 C676.803,513.47,702.673,485.777,716.993,451.945 C731.43,487.947,739.378,527.284,739.378,568.488 C739.378,729.284,618.348,861.638,462.944,878.365 z M176.939,700.458 C184.1,704.023,192.552,705.805,202.296,705.805 C218.563,705.805,231.23,700.805,240.296,690.805 C249.363,680.805,253.896,666.872,253.896,649.005 C253.896,631.805,249.33,618.105,240.196,607.905 C231.063,597.705,218.43,592.605,202.296,592.605 C191.63,592.605,182.396,594.972,174.596,599.705 C166.796,604.438,160.863,611.038,156.796,619.505 C152.73,627.972,150.696,637.872,150.696,649.205 C150.696,649.557,150.698,649.907,150.702,650.256 C150.877,667.618,155.408,681.167,164.296,690.905 C167.932,694.888,172.146,698.072,176.939,700.458 z"/>
        </defs>
        <use xlink:href="#7" style="fill:#000000;fill-opacity:1;fill-rule:evenodd;opacity:1;stroke:none;"/>
      </g>
    </defs>
    <use xlink:href="#6"/>
    <defs>
      <title>Text</title>
      <g id="8">
        <defs>
          <path id="9" d="M1272.48,478.305 C1272.48,512.105,1265.33,538.755,1251.03,558.255 C1236.73,577.755,1216.18,587.505,1189.38,587.505 C1162.38,587.505,1141.78,577.855,1127.58,558.555 C1113.38,539.255,1106.28,512.505,1106.28,478.305 C1106.28,444.505,1113.43,417.855,1127.73,398.355 C1142.03,378.855,1162.58,369.105,1189.38,369.105 C1216.38,369.105,1236.98,378.755,1251.18,398.055 C1265.38,417.355,1272.48,444.105,1272.48,478.305 z M1222.08,478.305 C1222.08,452.705,1219.53,434.105,1214.43,422.505 C1209.33,410.905,1200.98,405.105,1189.38,405.105 C1177.78,405.105,1169.43,410.905,1164.33,422.505 C1159.23,434.105,1156.68,452.705,1156.68,478.305 C1156.68,503.905,1159.23,522.505,1164.33,534.105 C1169.43,545.705,1177.78,551.505,1189.38,551.505 C1201.18,551.505,1209.58,545.705,1214.58,534.105 C1219.58,522.505,1222.08,503.905,1222.08,478.305 z M1388.58,417.705 C1408.58,417.705,1423.28,425.055,1432.68,439.755 C1442.08,454.455,1446.78,475.305,1446.78,502.305 C1446.78,518.705,1444.33,533.355,1439.43,546.255 C1434.53,559.155,1427.48,569.255,1418.28,576.555 C1409.08,583.855,1398.18,587.505,1385.58,587.505 C1370.18,587.505,1357.58,582.005,1347.78,571.005 C1347.78,571.005,1347.78,643.905,1347.78,643.905 C1347.78,643.905,1300.38,649.005,1300.38,649.005 C1300.38,649.005,1300.38,423.105,1300.38,423.105 C1300.38,423.105,1342.38,423.105,1342.38,423.105 C1342.38,423.105,1344.48,440.805,1344.48,440.805 C1350.68,433.005,1357.63,427.205,1365.33,423.405 C1373.03,419.605,1380.78,417.705,1388.58,417.705 z M1373.88,452.805 C1363.88,452.805,1355.18,459.005,1347.78,471.405 C1347.78,471.405,1347.78,538.605,1347.78,538.605 C1351.18,543.405,1354.73,546.955,1358.43,549.255 C1362.13,551.555,1366.38,552.705,1371.18,552.705 C1379.98,552.705,1386.63,548.755,1391.13,540.855 C1395.63,532.955,1397.88,520.305,1397.88,502.905 C1397.88,484.105,1395.88,471.055,1391.88,463.755 C1387.88,456.455,1381.88,452.805,1373.88,452.805 z M1544.28,553.605 C1552.48,553.605,1558.93,552.355,1563.63,549.855 C1568.33,547.355,1570.68,543.605,1570.68,538.605 C1570.68,535.005,1569.73,532.105,1567.83,529.905 C1565.93,527.705,1562.38,525.555,1557.18,523.455 C1551.98,521.355,1543.88,518.805,1532.88,515.805 C1516.88,511.605,1504.68,505.755,1496.28,498.255 C1487.88,490.755,1483.68,480.405,1483.68,467.205 C1483.68,452.605,1489.73,440.705,1501.83,431.505 C1513.93,422.305,1530.88,417.705,1552.68,417.705 C1577.88,417.705,1599.38,424.205,1617.18,437.205 C1617.18,437.205,1598.28,465.105,1598.28,465.105 C1583.68,456.105,1568.98,451.605,1554.18,451.605 C1546.38,451.605,1540.63,452.605,1536.93,454.605 C1533.23,456.605,1531.38,459.705,1531.38,463.905 C1531.38,466.705,1532.33,469.055,1534.23,470.955 C1536.13,472.855,1539.73,474.805,1545.03,476.805 C1550.33,478.805,1558.28,481.305,1568.88,484.305 C1580.28,487.505,1589.63,491.005,1596.93,494.805 C1604.23,498.605,1609.88,503.705,1613.88,510.105 C1617.88,516.505,1619.88,524.705,1619.88,534.705 C1619.88,545.905,1616.48,555.505,1609.68,563.505 C1602.88,571.505,1593.78,577.505,1582.38,581.505 C1570.98,585.505,1558.38,587.505,1544.58,587.505 C1529.78,587.505,1516.38,585.405,1504.38,581.205 C1492.38,577.005,1482.18,571.105,1473.78,563.505 C1473.78,563.505,1497.48,536.805,1497.48,536.805 C1511.88,548.005,1527.48,553.605,1544.28,553.605 z M1701.48,516.705 C1704.48,540.905,1717.28,553.005,1739.88,553.005 C1753.48,553.005,1767.08,548.605,1780.68,539.805 C1780.68,539.805,1799.58,565.605,1799.58,565.605 C1791.78,572.405,1782.48,577.755,1771.68,581.655 C1760.88,585.555,1748.98,587.505,1735.98,587.505 C1718.18,587.505,1703.08,583.955,1690.68,576.855 C1678.28,569.755,1668.93,559.855,1662.63,547.155 C1656.33,534.455,1653.18,519.705,1653.18,502.905 C1653.18,486.905,1656.23,472.455,1662.33,459.555 C1668.43,446.655,1677.33,436.455,1689.03,428.955 C1700.73,421.455,1714.68,417.705,1730.88,417.705 C1746.08,417.705,1759.28,420.955,1770.48,427.455 C1781.68,433.955,1790.33,443.355,1796.43,455.655 C1802.53,467.955,1805.58,482.605,1805.58,499.605 C1805.58,506.205,1805.28,511.905,1804.68,516.705 C1804.68,516.705,1701.48,516.705,1701.48,516.705 z M1730.88,449.505 C1722.28,449.505,1715.38,452.655,1710.18,458.955 C1704.98,465.255,1701.88,474.905,1700.88,487.905 C1700.88,487.905,1759.38,487.905,1759.38,487.905 C1758.98,462.305,1749.48,449.505,1730.88,449.505 z M1961.88,418.305 C1971.48,418.305,1980.28,419.905,1988.28,423.105 C1988.28,423.105,1979.58,489.705,1979.58,489.705 C1979.58,489.705,1949.58,489.705,1949.58,489.705 C1949.58,489.705,1949.58,460.305,1949.58,460.305 C1940.78,461.905,1932.98,466.705,1926.18,474.705 C1919.38,482.705,1914.08,492.805,1910.28,505.005 C1910.28,505.005,1910.28,550.605,1910.28,550.605 C1910.28,550.605,1941.78,550.605,1941.78,550.605 C1941.78,550.605,1941.78,582.405,1941.78,582.405 C1941.78,582.405,1841.88,582.405,1841.88,582.405 C1841.88,582.405,1841.88,550.605,1841.88,550.605 C1841.88,550.605,1862.88,550.605,1862.88,550.605 C1862.88,550.605,1862.88,454.605,1862.88,454.605 C1862.88,454.605,1841.88,454.605,1841.88,454.605 C1841.88,454.605,1841.88,423.105,1841.88,423.105 C1841.88,423.105,1899.18,423.105,1899.18,423.105 C1899.18,423.105,1907.58,458.805,1907.58,458.805 C1913.38,445.205,1920.68,435.055,1929.48,428.355 C1938.28,421.655,1949.08,418.305,1961.88,418.305 z M2117.58,582.405 C2117.58,582.405,2061.78,582.405,2061.78,582.405 C2061.78,582.405,2008.08,423.105,2008.08,423.105 C2008.08,423.105,2059.38,423.105,2059.38,423.105 C2059.38,423.105,2090.28,546.105,2090.28,546.105 C2090.28,546.105,2122.68,423.105,2122.68,423.105 C2122.68,423.105,2170.68,423.105,2170.68,423.105 C2170.68,423.105,2117.58,582.405,2117.58,582.405 z M2334.48,536.505 C2334.48,542.305,2335.28,546.605,2336.88,549.405 C2338.48,552.205,2341.18,554.305,2344.98,555.705 C2344.98,555.705,2335.08,586.905,2335.08,586.905 C2325.48,585.905,2317.48,583.755,2311.08,580.455 C2304.68,577.155,2299.68,572.305,2296.08,565.905 C2290.08,572.905,2282.48,578.255,2273.28,581.955 C2264.08,585.655,2254.28,587.505,2243.88,587.505 C2227.48,587.505,2214.38,582.855,2204.58,573.555 C2194.78,564.255,2189.88,552.205,2189.88,537.405 C2189.88,520.205,2196.68,506.855,2210.28,497.355 C2223.88,487.855,2242.98,483.105,2267.58,483.105 C2267.58,483.105,2288.88,483.105,2288.88,483.105 C2288.88,483.105,2288.88,477.405,2288.88,477.405 C2288.88,461.005,2278.38,452.805,2257.38,452.805 C2251.98,452.805,2245.23,453.555,2237.13,455.055 C2229.03,456.555,2221.18,458.605,2213.58,461.205 C2213.58,461.205,2202.78,429.705,2202.78,429.705 C2212.98,425.905,2223.63,422.955,2234.73,420.855 C2245.83,418.755,2255.88,417.705,2264.88,417.705 C2311.28,417.705,2334.48,436.505,2334.48,474.105 C2334.48,474.105,2334.48,536.505,2334.48,536.505 z M2260.08,553.605 C2265.48,553.605,2270.93,552.055,2276.43,548.955 C2281.93,545.855,2286.08,541.605,2288.88,536.205 C2288.88,536.205,2288.88,510.105,2288.88,510.105 C2288.88,510.105,2277.18,510.105,2277.18,510.105 C2251.58,510.105,2238.78,518.105,2238.78,534.105 C2238.78,540.305,2240.63,545.105,2244.33,548.505 C2248.03,551.905,2253.28,553.605,2260.08,553.605 z M2523.78,573.105 C2508.78,582.705,2491.38,587.505,2471.58,587.505 C2451.18,587.505,2435.83,582.305,2425.53,571.905 C2415.23,561.505,2410.08,546.905,2410.08,528.105 C2410.08,528.105,2410.08,455.805,2410.08,455.805 C2410.08,455.805,2376.78,455.805,2376.78,455.805 C2376.78,455.805,2376.78,423.105,2376.78,423.105 C2376.78,423.105,2410.08,423.105,2410.08,423.105 C2410.08,423.105,2410.08,388.605,2410.08,388.605 C2410.08,388.605,2457.48,382.905,2457.48,382.905 C2457.48,382.905,2457.48,423.105,2457.48,423.105 C2457.48,423.105,2508.78,423.105,2508.78,423.105 C2508.78,423.105,2503.98,455.805,2503.98,455.805 C2503.98,455.805,2457.48,455.805,2457.48,455.805 C2457.48,455.805,2457.48,528.105,2457.48,528.105 C2457.48,535.905,2459.28,541.505,2462.88,544.905 C2466.48,548.305,2472.28,550.005,2480.28,550.005 C2490.28,550.005,2499.58,547.605,2508.18,542.805 C2508.18,542.805,2523.78,573.105,2523.78,573.105 z M2629.38,417.705 C2653.58,417.705,2672.53,425.355,2686.23,440.655 C2699.93,455.955,2706.78,476.505,2706.78,502.305 C2706.78,529.105,2699.98,550.005,2686.38,565.005 C2672.78,580.005,2653.78,587.505,2629.38,587.505 C2604.98,587.505,2585.98,580.055,2572.38,565.155 C2558.78,550.255,2551.98,529.405,2551.98,502.605 C2551.98,485.605,2555.03,470.755,2561.13,458.055 C2567.23,445.355,2576.13,435.455,2587.83,428.355 C2599.53,421.255,2613.38,417.705,2629.38,417.705 z M2629.38,452.805 C2619.58,452.805,2612.38,456.755,2607.78,464.655 C2603.18,472.555,2600.88,485.205,2600.88,502.605 C2600.88,520.205,2603.18,532.955,2607.78,540.855 C2612.38,548.755,2619.58,552.705,2629.38,552.705 C2639.18,552.705,2646.38,548.705,2650.98,540.705 C2655.58,532.705,2657.88,519.905,2657.88,502.305 C2657.88,485.105,2655.58,472.555,2650.98,464.655 C2646.38,456.755,2639.18,452.805,2629.38,452.805 z M2861.88,418.305 C2871.48,418.305,2880.28,419.905,2888.28,423.105 C2888.28,423.105,2879.58,489.705,2879.58,489.705 C2879.58,489.705,2849.58,489.705,2849.58,489.705 C2849.58,489.705,2849.58,460.305,2849.58,460.305 C2840.78,461.905,2832.98,466.705,2826.18,474.705 C2819.38,482.705,2814.08,492.805,2810.28,505.005 C2810.28,505.005,2810.28,550.605,2810.28,550.605 C2810.28,550.605,2841.78,550.605,2841.78,550.605 C2841.78,550.605,2841.78,582.405,2841.78,582.405 C2841.78,582.405,2741.88,582.405,2741.88,582.405 C2741.88,582.405,2741.88,550.605,2741.88,550.605 C2741.88,550.605,2762.88,550.605,2762.88,550.605 C2762.88,550.605,2762.88,454.605,2762.88,454.605 C2762.88,454.605,2741.88,454.605,2741.88,454.605 C2741.88,454.605,2741.88,423.105,2741.88,423.105 C2741.88,423.105,2799.18,423.105,2799.18,423.105 C2799.18,423.105,2807.58,458.805,2807.58,458.805 C2813.38,445.205,2820.68,435.055,2829.48,428.355 C2838.28,421.655,2849.08,418.305,2861.88,418.305 z M3017.88,582.405 C3010.68,603.805,2999.98,619.955,2985.78,630.855 C2971.58,641.755,2952.58,647.905,2928.78,649.305 C2928.78,649.305,2923.38,615.705,2923.38,615.705 C2938.58,613.705,2949.83,610.305,2957.13,605.505 C2964.43,600.705,2970.28,593.005,2974.68,582.405 C2974.68,582.405,2958.18,582.405,2958.18,582.405 C2958.18,582.405,2907.78,423.105,2907.78,423.105 C2907.78,423.105,2957.88,423.105,2957.88,423.105 C2957.88,423.105,2988.78,552.105,2988.78,552.105 C2988.78,552.105,3022.38,423.105,3022.38,423.105 C3022.38,423.105,3070.98,423.105,3070.98,423.105 C3070.98,423.105,3017.88,582.405,3017.88,582.405 z"/>
        </defs>
        <use xlink:href="#9" style="fill:#000000;fill-opacity:1;fill-rule:nonzero;opacity:1;stroke:none;"/>
        <use xlink:href="#9" style="fill:#000000;fill-opacity:1;fill-rule:nonzero;opacity:1;stroke:none;"/>
      </g>
    </defs>
    <use xlink:href="#8"/>
  </g>
</svg>
